<svg xmlns="http://www.w3.org/2000/svg" xmlns:xlink="http://www.w3.org/1999/xlink" width="250" zoomAndPan="magnify" viewBox="0 0 187.5 374.999989" height="500" preserveAspectRatio="xMidYMid meet" version="1.0"><defs><clipPath id="23fde40a73"><path d="M 85 156 L 102 156 L 102 374.5 L 85 374.5 Z M 85 156 " clip-rule="nonzero"/></clipPath><clipPath id="cd0c4b4f87"><path d="M 7.734375 0.5 L 179.484375 0.5 L 179.484375 173 L 7.734375 173 Z M 7.734375 0.5 " clip-rule="nonzero"/></clipPath></defs><g clip-path="url(#23fde40a73)"><path fill="#455a64" d="M 93.609375 375.5 C 93.097656 375.5 92.589844 375.449219 92.085938 375.347656 C 91.585938 375.25 91.097656 375.101562 90.625 374.902344 C 90.152344 374.707031 89.703125 374.46875 89.277344 374.183594 C 88.851562 373.898438 88.457031 373.574219 88.09375 373.210938 C 87.730469 372.847656 87.410156 372.453125 87.125 372.027344 C 86.839844 371.601562 86.597656 371.148438 86.402344 370.675781 C 86.207031 370.203125 86.058594 369.714844 85.960938 369.210938 C 85.859375 368.707031 85.808594 368.199219 85.808594 367.6875 L 85.808594 164.5625 C 85.808594 164.046875 85.859375 163.539062 85.960938 163.035156 C 86.058594 162.535156 86.207031 162.046875 86.402344 161.570312 C 86.597656 161.097656 86.839844 160.648438 87.125 160.222656 C 87.410156 159.792969 87.730469 159.398438 88.09375 159.035156 C 88.457031 158.675781 88.851562 158.351562 89.277344 158.066406 C 89.703125 157.78125 90.152344 157.539062 90.625 157.34375 C 91.097656 157.148438 91.585938 157 92.085938 156.898438 C 92.589844 156.796875 93.097656 156.75 93.609375 156.75 C 94.121094 156.75 94.628906 156.796875 95.132812 156.898438 C 95.632812 157 96.121094 157.148438 96.59375 157.34375 C 97.066406 157.539062 97.515625 157.78125 97.941406 158.066406 C 98.367188 158.351562 98.761719 158.675781 99.125 159.035156 C 99.488281 159.398438 99.808594 159.792969 100.09375 160.222656 C 100.378906 160.648438 100.621094 161.097656 100.816406 161.570312 C 101.011719 162.046875 101.160156 162.535156 101.257812 163.035156 C 101.359375 163.539062 101.410156 164.046875 101.410156 164.5625 L 101.410156 367.6875 C 101.410156 368.199219 101.359375 368.707031 101.257812 369.210938 C 101.160156 369.714844 101.011719 370.203125 100.816406 370.675781 C 100.621094 371.148438 100.378906 371.601562 100.09375 372.027344 C 99.808594 372.453125 99.488281 372.847656 99.125 373.210938 C 98.761719 373.574219 98.367188 373.898438 97.941406 374.183594 C 97.515625 374.46875 97.066406 374.707031 96.59375 374.902344 C 96.121094 375.101562 95.632812 375.25 95.132812 375.347656 C 94.628906 375.449219 94.121094 375.5 93.609375 375.5 Z M 93.609375 375.5 " fill-opacity="1" fill-rule="nonzero"/></g><g clip-path="url(#cd0c4b4f87)"><path fill="#f44336" d="M 179.40625 86.4375 C 179.40625 87.84375 179.371094 89.25 179.304688 90.652344 C 179.234375 92.058594 179.128906 93.460938 178.992188 94.859375 C 178.855469 96.257812 178.683594 97.65625 178.476562 99.046875 C 178.273438 100.4375 178.03125 101.824219 177.757812 103.203125 C 177.484375 104.582031 177.175781 105.953125 176.835938 107.316406 C 176.492188 108.679688 176.121094 110.035156 175.710938 111.382812 C 175.304688 112.726562 174.863281 114.0625 174.390625 115.386719 C 173.917969 116.710938 173.414062 118.023438 172.875 119.324219 C 172.339844 120.621094 171.769531 121.90625 171.167969 123.179688 C 170.570312 124.449219 169.9375 125.707031 169.277344 126.945312 C 168.613281 128.1875 167.921875 129.410156 167.199219 130.617188 C 166.476562 131.824219 165.726562 133.011719 164.945312 134.179688 C 164.167969 135.351562 163.359375 136.5 162.523438 137.628906 C 161.6875 138.757812 160.820312 139.867188 159.929688 140.953125 C 159.039062 142.042969 158.125 143.105469 157.179688 144.148438 C 156.238281 145.191406 155.269531 146.207031 154.277344 147.203125 C 153.285156 148.199219 152.265625 149.167969 151.226562 150.113281 C 150.1875 151.054688 149.125 151.972656 148.039062 152.867188 C 146.953125 153.757812 145.847656 154.625 144.71875 155.460938 C 143.589844 156.300781 142.441406 157.109375 141.277344 157.890625 C 140.109375 158.671875 138.921875 159.425781 137.71875 160.148438 C 136.511719 160.871094 135.292969 161.5625 134.054688 162.226562 C 132.816406 162.890625 131.5625 163.519531 130.292969 164.121094 C 129.023438 164.722656 127.738281 165.292969 126.441406 165.832031 C 125.144531 166.371094 123.835938 166.875 122.511719 167.351562 C 121.191406 167.824219 119.859375 168.265625 118.515625 168.671875 C 117.171875 169.082031 115.820312 169.457031 114.457031 169.796875 C 113.09375 170.140625 111.726562 170.449219 110.347656 170.722656 C 108.96875 170.996094 107.585938 171.238281 106.199219 171.445312 C 104.808594 171.648438 103.417969 171.820312 102.019531 171.960938 C 100.621094 172.097656 99.222656 172.199219 97.820312 172.269531 C 96.417969 172.339844 95.011719 172.375 93.609375 172.375 C 92.207031 172.375 90.800781 172.339844 89.398438 172.269531 C 87.996094 172.199219 86.597656 172.097656 85.199219 171.960938 C 83.800781 171.820312 82.410156 171.648438 81.019531 171.445312 C 79.632812 171.238281 78.25 170.996094 76.871094 170.722656 C 75.492188 170.449219 74.125 170.140625 72.761719 169.796875 C 71.398438 169.457031 70.046875 169.082031 68.703125 168.671875 C 67.359375 168.265625 66.027344 167.824219 64.707031 167.351562 C 63.382812 166.875 62.074219 166.371094 60.777344 165.832031 C 59.480469 165.292969 58.195312 164.722656 56.925781 164.121094 C 55.65625 163.519531 54.402344 162.890625 53.164062 162.226562 C 51.925781 161.5625 50.707031 160.871094 49.5 160.148438 C 48.296875 159.425781 47.109375 158.671875 45.941406 157.890625 C 44.777344 157.109375 43.628906 156.300781 42.5 155.460938 C 41.371094 154.625 40.265625 153.757812 39.179688 152.867188 C 38.09375 151.972656 37.03125 151.054688 35.992188 150.113281 C 34.953125 149.167969 33.933594 148.199219 32.941406 147.203125 C 31.949219 146.207031 30.980469 145.191406 30.039062 144.148438 C 29.09375 143.105469 28.179688 142.042969 27.289062 140.953125 C 26.398438 139.867188 25.53125 138.757812 24.695312 137.628906 C 23.859375 136.5 23.050781 135.351562 22.273438 134.179688 C 21.492188 133.011719 20.742188 131.824219 20.019531 130.617188 C 19.296875 129.410156 18.605469 128.1875 17.941406 126.945312 C 17.28125 125.707031 16.648438 124.449219 16.050781 123.179688 C 15.449219 121.90625 14.878906 120.621094 14.34375 119.324219 C 13.804688 118.023438 13.300781 116.710938 12.828125 115.386719 C 12.355469 114.0625 11.914062 112.726562 11.507812 111.382812 C 11.097656 110.035156 10.726562 108.679688 10.382812 107.316406 C 10.042969 105.953125 9.734375 104.582031 9.460938 103.203125 C 9.1875 101.824219 8.945312 100.4375 8.742188 99.046875 C 8.535156 97.65625 8.363281 96.257812 8.226562 94.859375 C 8.085938 93.460938 7.984375 92.058594 7.914062 90.652344 C 7.847656 89.25 7.8125 87.84375 7.8125 86.4375 C 7.8125 85.03125 7.847656 83.625 7.914062 82.21875 C 7.984375 80.816406 8.085938 79.414062 8.226562 78.011719 C 8.363281 76.613281 8.535156 75.21875 8.742188 73.828125 C 8.945312 72.433594 9.1875 71.050781 9.460938 69.671875 C 9.734375 68.292969 10.042969 66.917969 10.382812 65.554688 C 10.726562 64.191406 11.097656 62.835938 11.507812 61.488281 C 11.914062 60.144531 12.355469 58.808594 12.828125 57.484375 C 13.300781 56.160156 13.804688 54.847656 14.34375 53.550781 C 14.878906 52.25 15.449219 50.964844 16.050781 49.691406 C 16.648438 48.421875 17.28125 47.164062 17.941406 45.925781 C 18.605469 44.683594 19.296875 43.460938 20.019531 42.253906 C 20.742188 41.050781 21.492188 39.859375 22.273438 38.691406 C 23.050781 37.523438 23.859375 36.371094 24.695312 35.242188 C 25.53125 34.113281 26.398438 33.003906 27.289062 31.917969 C 28.179688 30.832031 29.09375 29.765625 30.039062 28.722656 C 30.980469 27.683594 31.949219 26.664062 32.941406 25.667969 C 33.933594 24.675781 34.953125 23.707031 35.992188 22.761719 C 37.03125 21.816406 38.09375 20.898438 39.179688 20.003906 C 40.265625 19.113281 41.371094 18.25 42.5 17.410156 C 43.628906 16.574219 44.777344 15.761719 45.941406 14.980469 C 47.109375 14.199219 48.296875 13.449219 49.5 12.726562 C 50.707031 12.003906 51.925781 11.308594 53.164062 10.644531 C 54.402344 9.984375 55.65625 9.351562 56.925781 8.75 C 58.195312 8.148438 59.480469 7.578125 60.777344 7.039062 C 62.074219 6.503906 63.382812 5.996094 64.707031 5.523438 C 66.027344 5.046875 67.359375 4.605469 68.703125 4.199219 C 70.046875 3.789062 71.398438 3.414062 72.761719 3.074219 C 74.125 2.730469 75.492188 2.425781 76.871094 2.148438 C 78.25 1.875 79.632812 1.636719 81.019531 1.429688 C 82.410156 1.222656 83.800781 1.050781 85.199219 0.914062 C 86.597656 0.773438 87.996094 0.671875 89.398438 0.601562 C 90.800781 0.53125 92.207031 0.5 93.609375 0.5 C 95.011719 0.5 96.417969 0.53125 97.820312 0.601562 C 99.222656 0.671875 100.621094 0.773438 102.019531 0.914062 C 103.417969 1.050781 104.808594 1.222656 106.199219 1.429688 C 107.585938 1.636719 108.96875 1.875 110.347656 2.148438 C 111.726562 2.425781 113.09375 2.730469 114.457031 3.074219 C 115.820312 3.414062 117.171875 3.789062 118.515625 4.199219 C 119.859375 4.605469 121.191406 5.046875 122.511719 5.523438 C 123.835938 5.996094 125.144531 6.503906 126.441406 7.039062 C 127.738281 7.578125 129.023438 8.148438 130.292969 8.75 C 131.5625 9.351562 132.816406 9.984375 134.054688 10.644531 C 135.292969 11.308594 136.511719 12.003906 137.71875 12.726562 C 138.921875 13.449219 140.109375 14.199219 141.277344 14.980469 C 142.441406 15.761719 143.589844 16.574219 144.71875 17.410156 C 145.847656 18.25 146.953125 19.113281 148.039062 20.003906 C 149.125 20.898438 150.1875 21.816406 151.226562 22.761719 C 152.265625 23.707031 153.285156 24.675781 154.277344 25.667969 C 155.269531 26.664062 156.238281 27.683594 157.179688 28.722656 C 158.125 29.765625 159.039062 30.832031 159.929688 31.917969 C 160.820312 33.003906 161.6875 34.113281 162.523438 35.242188 C 163.359375 36.371094 164.167969 37.523438 164.945312 38.691406 C 165.726562 39.859375 166.476562 41.050781 167.199219 42.253906 C 167.921875 43.460938 168.613281 44.683594 169.277344 45.925781 C 169.9375 47.164062 170.570312 48.421875 171.167969 49.691406 C 171.769531 50.964844 172.339844 52.25 172.875 53.550781 C 173.414062 54.847656 173.917969 56.160156 174.390625 57.484375 C 174.863281 58.808594 175.304688 60.144531 175.710938 61.488281 C 176.121094 62.835938 176.492188 64.191406 176.835938 65.554688 C 177.175781 66.917969 177.484375 68.292969 177.757812 69.671875 C 178.03125 71.050781 178.273438 72.433594 178.476562 73.828125 C 178.683594 75.21875 178.855469 76.613281 178.992188 78.011719 C 179.128906 79.414062 179.234375 80.816406 179.304688 82.21875 C 179.371094 83.625 179.40625 85.03125 179.40625 86.4375 Z M 179.40625 86.4375 " fill-opacity="1" fill-rule="nonzero"/></g><path fill="#e57373" d="M 46.8125 94.25 C 46.300781 94.25 45.792969 94.199219 45.289062 94.097656 C 44.785156 94 44.300781 93.851562 43.824219 93.652344 C 43.351562 93.457031 42.902344 93.21875 42.476562 92.933594 C 42.050781 92.648438 41.65625 92.324219 41.296875 91.960938 C 40.933594 91.597656 40.609375 91.203125 40.324219 90.777344 C 40.042969 90.351562 39.800781 89.898438 39.605469 89.425781 C 39.410156 88.953125 39.261719 88.464844 39.160156 87.960938 C 39.0625 87.457031 39.011719 86.949219 39.011719 86.4375 C 39.011719 84.644531 39.097656 82.859375 39.273438 81.074219 C 39.449219 79.292969 39.710938 77.523438 40.058594 75.765625 C 40.410156 74.011719 40.84375 72.273438 41.363281 70.5625 C 41.882812 68.847656 42.484375 67.164062 43.167969 65.507812 C 43.851562 63.851562 44.613281 62.234375 45.457031 60.65625 C 46.300781 59.078125 47.21875 57.542969 48.210938 56.054688 C 49.207031 54.5625 50.269531 53.128906 51.40625 51.742188 C 52.539062 50.359375 53.738281 49.03125 55.003906 47.765625 C 56.265625 46.5 57.589844 45.296875 58.972656 44.164062 C 60.355469 43.027344 61.789062 41.960938 63.277344 40.964844 C 64.761719 39.96875 66.296875 39.050781 67.871094 38.207031 C 69.449219 37.363281 71.0625 36.597656 72.714844 35.910156 C 74.367188 35.226562 76.050781 34.625 77.761719 34.101562 C 79.472656 33.582031 81.203125 33.148438 82.957031 32.800781 C 84.710938 32.449219 86.476562 32.1875 88.257812 32.011719 C 90.039062 31.835938 91.820312 31.75 93.609375 31.75 C 94.121094 31.75 94.628906 31.796875 95.132812 31.898438 C 95.632812 32 96.121094 32.148438 96.59375 32.34375 C 97.066406 32.539062 97.515625 32.78125 97.941406 33.066406 C 98.367188 33.351562 98.761719 33.675781 99.125 34.035156 C 99.488281 34.398438 99.808594 34.792969 100.09375 35.222656 C 100.378906 35.648438 100.621094 36.097656 100.816406 36.570312 C 101.011719 37.046875 101.160156 37.535156 101.257812 38.035156 C 101.359375 38.539062 101.410156 39.046875 101.410156 39.5625 C 101.410156 40.074219 101.359375 40.582031 101.257812 41.085938 C 101.160156 41.589844 101.011719 42.078125 100.816406 42.550781 C 100.621094 43.023438 100.378906 43.476562 100.09375 43.902344 C 99.808594 44.328125 99.488281 44.722656 99.125 45.085938 C 98.761719 45.449219 98.367188 45.773438 97.941406 46.058594 C 97.515625 46.34375 97.066406 46.582031 96.59375 46.777344 C 96.121094 46.976562 95.632812 47.125 95.132812 47.222656 C 94.628906 47.324219 94.121094 47.375 93.609375 47.375 C 92.332031 47.375 91.058594 47.4375 89.785156 47.5625 C 88.515625 47.6875 87.253906 47.875 86 48.125 C 84.75 48.375 83.511719 48.683594 82.289062 49.054688 C 81.066406 49.425781 79.867188 49.859375 78.683594 50.347656 C 77.503906 50.835938 76.351562 51.382812 75.226562 51.984375 C 74.097656 52.589844 73.003906 53.246094 71.941406 53.957031 C 70.882812 54.667969 69.855469 55.429688 68.867188 56.242188 C 67.882812 57.050781 66.9375 57.910156 66.03125 58.816406 C 65.128906 59.71875 64.273438 60.667969 63.464844 61.65625 C 62.652344 62.644531 61.894531 63.671875 61.183594 64.734375 C 60.472656 65.796875 59.816406 66.894531 59.214844 68.023438 C 58.613281 69.152344 58.066406 70.304688 57.578125 71.488281 C 57.089844 72.667969 56.660156 73.871094 56.289062 75.097656 C 55.917969 76.320312 55.609375 77.5625 55.359375 78.816406 C 55.109375 80.070312 54.921875 81.335938 54.796875 82.605469 C 54.671875 83.878906 54.609375 85.15625 54.609375 86.4375 C 54.609375 86.949219 54.5625 87.457031 54.460938 87.960938 C 54.359375 88.464844 54.214844 88.953125 54.015625 89.425781 C 53.820312 89.898438 53.582031 90.351562 53.296875 90.777344 C 53.011719 91.203125 52.6875 91.597656 52.328125 91.960938 C 51.964844 92.324219 51.570312 92.648438 51.144531 92.933594 C 50.71875 93.21875 50.269531 93.457031 49.796875 93.652344 C 49.324219 93.851562 48.835938 94 48.332031 94.097656 C 47.832031 94.199219 47.324219 94.25 46.8125 94.25 Z M 46.8125 94.25 " fill-opacity="1" fill-rule="nonzero"/></svg>